<?xml version="1.0" standalone="no"?>
<!DOCTYPE svg PUBLIC "-//W3C//DTD SVG 20010904//EN"
 "http://www.w3.org/TR/2001/REC-SVG-20010904/DTD/svg10.dtd">
<svg version="1.0" xmlns="http://www.w3.org/2000/svg"
 width="1280.000000pt" height="1280.000000pt" viewBox="0 0 1280.000000 1280.000000"
 preserveAspectRatio="xMidYMid meet">
<metadata>
Created by potrace 1.15, written by Peter Selinger 2001-2017
</metadata>
<g transform="translate(0.000000,1280.000000) scale(0.100000,-0.100000)"
fill="#000000" stroke="none">
<path d="M7308 12027 c-26 -8 -65 -25 -86 -40 -38 -25 -42 -25 -88 -13 -27 7
-55 11 -62 8 -7 -2 -33 -29 -57 -59 -38 -50 -47 -56 -83 -57 -42 -2 -43 1 -13
39 8 11 2 8 -13 -7 -22 -20 -30 -38 -34 -77 -4 -47 -8 -53 -58 -91 -29 -22
-58 -40 -64 -40 -6 0 -20 -6 -31 -12 -21 -12 -34 -4 -29 18 1 4 -7 12 -18 18
-11 6 -38 23 -60 39 -23 15 -46 27 -51 27 -5 0 -26 8 -47 17 -22 9 -44 16 -51
15 -6 -2 -15 3 -19 9 -5 8 -2 10 8 7 8 -4 21 -2 29 4 9 6 -4 7 -38 3 -36 -5
-53 -3 -53 4 0 6 -5 11 -11 11 -5 0 -8 -4 -5 -9 3 -4 -16 -4 -42 1 -26 5 -65
7 -87 4 -28 -4 -34 -3 -20 4 13 6 15 9 5 9 -8 0 -26 -8 -40 -19 -14 -11 -35
-20 -46 -20 -12 0 -58 -18 -102 -40 -44 -22 -84 -40 -90 -40 -5 0 -15 -7 -23
-16 -7 -8 -40 -28 -73 -43 -34 -15 -80 -47 -104 -72 -24 -24 -61 -62 -84 -85
-31 -31 -40 -47 -35 -63 3 -12 -2 -35 -10 -53 -12 -23 -16 -64 -16 -167 l0
-136 -43 -42 c-100 -97 -109 -166 -34 -278 20 -31 27 -54 28 -100 2 -82 27
-169 64 -229 23 -38 33 -69 39 -126 5 -44 18 -93 31 -118 22 -41 22 -44 6 -72
-20 -36 -14 -39 13 -7 l19 22 32 -38 c32 -40 98 -87 120 -87 7 0 0 9 -16 19
-29 19 -97 98 -117 138 -9 17 -7 34 10 84 16 49 21 88 21 173 l1 111 25 -45
c24 -44 24 -44 18 -11 -4 23 -3 31 5 27 5 -4 -1 19 -15 49 -25 54 -25 57 -8
70 11 8 21 15 24 15 14 0 82 -163 105 -253 30 -112 68 -201 100 -237 13 -14
29 -45 35 -70 7 -24 19 -54 27 -65 15 -20 15 -20 9 0 -4 11 -13 45 -21 75 -7
30 -27 84 -44 120 -34 72 -37 87 -19 125 16 35 25 31 39 -17 14 -47 34 -76 46
-64 5 4 8 28 7 52 -1 62 20 57 45 -11 12 -31 21 -63 21 -71 0 -20 25 -67 43
-82 28 -24 26 37 -4 126 -16 47 -27 88 -24 90 2 3 24 -3 49 -12 37 -14 46 -24
61 -62 16 -43 16 -45 -4 -62 -21 -17 -21 -18 -5 -85 14 -56 15 -75 6 -101 -7
-18 -12 -39 -12 -48 0 -8 -15 -29 -32 -46 -141 -132 -192 -174 -253 -207 -91
-50 -178 -134 -210 -201 -23 -48 -40 -64 -164 -154 -148 -107 -252 -208 -282
-274 -52 -115 10 -273 170 -432 86 -85 97 -92 193 -119 l57 -15 -3 -53 c-2
-28 -7 -60 -11 -71 -5 -10 -3 -33 4 -53 10 -26 11 -82 6 -221 -8 -220 -15
-272 -49 -412 -14 -58 -32 -147 -40 -199 -8 -51 -22 -101 -30 -110 -19 -21
-38 -132 -25 -147 14 -17 0 -43 -27 -50 -32 -8 -44 -31 -34 -65 8 -25 6 -28
-23 -35 -17 -3 -45 -7 -62 -9 -52 -3 -75 -15 -82 -43 -4 -15 -6 -33 -5 -40 2
-7 -9 -35 -23 -63 -27 -55 -31 -89 -14 -120 6 -11 12 -46 15 -76 2 -31 11 -67
19 -80 12 -18 14 -44 10 -125 -3 -56 -10 -117 -17 -134 -9 -26 -9 -36 1 -48
34 -41 104 8 117 82 4 20 11 45 16 54 8 17 10 17 33 2 14 -9 23 -19 21 -23 -7
-10 -26 -255 -36 -451 -5 -102 -14 -212 -19 -245 -8 -48 -7 -63 5 -76 17 -19
19 -83 2 -97 -14 -11 -15 -123 -3 -300 7 -91 6 -102 -8 -96 -11 4 -18 -1 -22
-18 -8 -31 31 -540 54 -702 16 -120 20 -131 46 -152 l28 -22 -7 -154 c-6 -138
-4 -158 13 -193 10 -22 21 -69 24 -103 4 -50 13 -77 42 -123 34 -55 36 -62 25
-95 -15 -44 1 -118 31 -150 19 -20 20 -24 5 -52 -28 -54 -34 -167 -24 -462 6
-202 6 -348 -3 -501 -9 -160 -9 -221 0 -237 13 -24 14 -157 2 -219 -5 -27 -22
-57 -45 -83 -41 -45 -44 -67 -17 -102 19 -24 19 -26 2 -54 -29 -49 -30 -61
-10 -98 24 -45 24 -57 -1 -109 -11 -23 -24 -67 -29 -98 -5 -31 -19 -88 -30
-126 -20 -68 -22 -69 -50 -65 -36 5 -37 2 -94 -160 -29 -83 -60 -148 -95 -202
-29 -43 -52 -85 -52 -93 0 -9 -8 -12 -22 -8 -224 51 -347 44 -431 -26 -33 -27
-37 -35 -37 -79 0 -28 6 -52 13 -59 14 -11 16 -76 3 -88 -3 -3 -6 -16 -6 -29
0 -12 -11 -29 -24 -38 -25 -16 -30 -32 -41 -123 -6 -46 -4 -52 14 -58 11 -3
23 -15 26 -25 8 -24 42 -35 61 -19 12 10 17 8 30 -7 8 -10 19 -29 24 -41 12
-29 69 -65 93 -59 10 3 51 -2 90 -11 40 -9 79 -15 89 -15 9 0 19 -10 22 -23
10 -39 110 -61 136 -30 10 12 15 12 36 -2 30 -19 86 -13 147 16 23 11 58 24
77 27 19 4 47 15 62 25 14 11 39 19 55 19 28 0 103 43 103 59 0 5 13 25 30 46
16 21 30 49 30 62 0 13 14 41 30 62 25 31 32 50 37 107 6 67 7 70 56 117 28
26 54 47 57 47 3 0 23 -30 44 -66 32 -57 41 -65 59 -59 12 4 31 7 41 6 30 0
76 28 86 53 6 16 20 26 44 30 51 10 99 53 92 82 -6 24 7 33 19 14 3 -5 19 -10
35 -10 37 0 93 54 85 81 -8 23 3 24 26 3 16 -14 20 -14 48 1 17 8 31 21 31 28
0 6 -21 47 -47 89 -37 62 -52 78 -70 78 -16 0 -30 10 -41 30 -9 16 -25 30 -34
30 -10 0 -22 9 -28 20 -6 11 -20 20 -31 20 -11 0 -21 6 -23 13 -2 6 -8 26 -13
44 -8 24 -7 34 4 46 13 13 10 24 -30 98 -25 46 -48 100 -52 119 -14 73 -26
100 -46 100 -24 0 -24 5 5 63 26 51 25 71 -5 88 -23 12 -24 32 -4 49 8 7 15
23 15 35 0 14 7 25 20 28 26 7 25 29 -4 64 -46 56 -48 67 -26 130 22 61 36
112 94 357 24 99 53 187 87 265 89 201 100 230 115 309 21 105 12 237 -26 388
-35 140 -36 160 -10 174 30 16 26 61 -10 95 -23 22 -30 38 -31 69 0 23 -4 50
-9 61 -5 14 -2 30 12 52 15 25 17 37 8 53 -6 11 -15 20 -20 20 -5 0 -14 9 -20
21 -10 17 -7 27 14 58 30 43 33 72 10 106 -11 17 -13 29 -6 42 5 10 13 41 17
68 4 28 17 94 30 147 13 53 34 158 46 232 20 124 24 135 39 121 8 -8 22 -31
29 -52 8 -21 33 -71 57 -110 24 -40 54 -94 67 -120 12 -27 38 -73 57 -103 46
-73 78 -150 96 -230 17 -74 47 -160 69 -193 8 -12 38 -41 68 -65 l53 -42 11
-113 c9 -86 24 -154 66 -292 31 -99 65 -203 77 -230 59 -134 120 -362 135
-500 9 -82 24 -128 40 -121 8 3 17 -10 25 -37 17 -64 39 -299 29 -319 -16 -30
-9 -54 22 -82 28 -25 30 -32 24 -65 -21 -113 -20 -120 16 -157 l34 -35 0 -122
c0 -67 3 -127 8 -134 4 -6 12 -47 17 -89 9 -71 8 -79 -10 -99 -14 -15 -26 -55
-40 -140 -11 -65 -36 -181 -55 -258 -19 -77 -35 -149 -35 -160 0 -11 -18 -39
-39 -62 -22 -24 -49 -62 -61 -85 -22 -42 -22 -48 -11 -215 4 -60 -7 -136 -21
-152 -9 -10 -20 -36 -23 -58 -8 -49 10 -202 26 -221 9 -11 83 -14 384 -14 342
0 378 2 429 20 55 19 56 19 66 -1 8 -15 21 -19 61 -19 56 0 77 14 95 64 12 35
44 46 64 21 7 -8 27 -15 45 -15 76 0 97 115 49 271 -14 46 -28 98 -31 114 -3
17 -19 46 -34 65 -23 27 -29 45 -29 82 0 51 12 62 30 27 16 -29 60 -22 79 13
13 22 13 35 4 69 -9 34 -8 45 3 56 22 23 16 144 -14 248 -27 97 -34 110 -59
110 -10 0 -20 12 -25 32 -5 18 -17 37 -28 43 -11 6 -20 16 -20 23 0 8 -13 26
-30 42 -34 33 -59 91 -34 81 25 -10 27 19 5 106 -11 46 -23 115 -27 153 -4 39
-14 93 -23 120 -13 42 -21 52 -48 59 -30 9 -31 13 -38 74 -6 55 -12 69 -37 92
-29 27 -30 28 -14 59 13 24 14 36 6 51 -7 14 -8 26 0 39 18 34 11 69 -20 104
-27 31 -28 37 -18 65 11 28 9 35 -12 64 -28 37 -27 29 -30 323 -2 250 4 341
35 495 41 206 13 335 -148 673 -51 106 -64 143 -58 160 19 50 -27 124 -129
209 -26 22 -31 32 -25 50 4 13 10 40 12 61 5 36 2 42 -55 96 -52 49 -60 63
-65 101 -2 25 -14 83 -26 130 -12 46 -31 148 -42 225 -21 148 -30 202 -85 493
-19 100 -34 195 -34 211 0 25 3 27 30 23 43 -6 131 17 158 42 13 11 36 44 50
71 39 74 36 168 -11 360 -23 98 -39 195 -46 281 -16 200 -49 277 -197 460 -46
57 -84 110 -84 119 0 8 30 64 67 123 144 233 194 326 188 349 -3 13 -10 23
-15 23 -6 0 -10 7 -10 15 0 8 -24 42 -54 74 -30 32 -57 69 -61 81 -7 22 -22
23 -75 9 -10 -3 -17 11 -26 53 -17 82 -40 115 -113 159 -55 33 -73 39 -121 39
-46 0 -60 -4 -76 -22 -38 -45 -44 -66 -38 -123 4 -35 3 -55 -4 -55 -16 0 -62
126 -62 173 0 42 1 43 244 282 135 132 282 281 328 332 104 114 205 259 214
310 4 21 13 47 20 58 9 14 13 57 13 136 0 97 -3 120 -19 147 -11 18 -20 39
-20 48 0 8 -8 36 -19 62 -24 62 -42 131 -42 160 1 13 -8 42 -20 65 -23 48 -53
135 -63 187 -11 52 -27 91 -51 125 -38 52 -68 161 -85 308 -5 44 -20 102 -34
132 -46 101 -152 192 -280 240 -66 25 -69 25 -95 8 -33 -22 -62 -18 -116 15
-75 45 -88 86 -59 194 8 34 15 75 14 92 -4 67 0 111 9 96 10 -16 8 -117 -3
-220 -7 -63 -7 -64 9 -37 20 35 33 186 22 248 -10 53 -3 124 16 170 l14 34 16
-71 c14 -65 14 -102 -2 -129 -3 -6 2 -3 11 7 16 18 18 16 37 -49 47 -161 53
-186 49 -213 -2 -16 -1 -27 4 -24 16 10 8 85 -26 251 -19 93 -38 188 -41 213
-19 122 -67 295 -104 369 l-40 79 33 25 c23 18 45 26 74 25 22 0 45 3 51 6 22
14 49 -49 76 -178 8 -38 24 -86 35 -108 12 -23 20 -58 20 -86 0 -62 118 -371
143 -372 12 0 -2 42 -54 166 -27 63 -49 116 -49 118 0 2 25 -4 55 -12 42 -12
64 -13 97 -5 l43 11 -42 1 c-23 0 -58 9 -78 18 -32 15 -35 20 -35 59 0 26 6
46 14 51 7 4 22 24 32 43 16 30 19 56 18 175 -1 98 -6 155 -17 188 -13 40 -14
58 -4 103 8 41 8 59 0 73 -16 25 -7 31 31 24 57 -11 105 -50 131 -106 14 -29
22 -41 19 -27 -14 55 -38 92 -79 115 -23 14 -51 25 -63 25 -25 0 -62 36 -62
61 0 10 -8 24 -18 31 -27 19 -45 77 -30 95 24 29 94 56 158 61 57 4 72 1 127
-26 34 -16 59 -24 57 -18 -8 20 -94 57 -143 62 -25 2 -67 -2 -93 -9z m-156
-75 c11 -5 14 -12 9 -20 -5 -9 -15 -10 -32 -3 -14 5 -38 6 -55 3 -26 -5 -28
-4 -15 11 14 17 61 21 93 9z m38 -42 c11 -21 4 -25 -19 -11 -7 5 -10 14 -7 20
10 15 14 14 26 -9z m-256 -73 c-6 -16 -44 -40 -44 -28 0 23 14 41 31 41 11 0
16 -5 13 -13z m306 -288 c16 -60 10 -83 -22 -87 -15 -2 -36 2 -47 8 -25 13
-56 69 -44 81 7 7 77 35 95 38 4 0 12 -17 18 -40z m-161 -54 c0 -18 -1 -17
-13 5 -8 14 -12 29 -9 33 8 12 23 -14 22 -38z m123 -52 c13 2 30 7 39 11 13 6
17 -8 25 -86 10 -89 9 -95 -15 -150 -14 -32 -29 -58 -34 -58 -4 0 -11 10 -16
23 -14 35 -59 196 -74 264 l-14 61 33 -35 c25 -26 40 -34 56 -30z m-1546 10
c-11 -11 -19 6 -11 24 8 17 8 17 12 0 3 -10 2 -21 -1 -24z m-72 -405 c-6 -22
-94 -125 -94 -110 1 16 86 132 97 132 3 0 1 -10 -3 -22z m18 -10 c-7 -7 -12
-8 -12 -2 0 14 12 26 19 19 2 -3 -1 -11 -7 -17z m-42 -83 c0 -9 6 -26 14 -38
13 -19 13 -29 0 -77 -8 -30 -16 -59 -18 -65 -2 -5 -13 10 -25 35 -22 49 -27
110 -11 141 13 23 40 25 40 4z m50 -134 c0 -10 8 -29 18 -41 16 -20 17 -31 9
-79 -5 -31 -7 -91 -4 -135 3 -43 2 -74 -3 -70 -31 34 -59 211 -46 298 7 45 26
65 26 27z m85 -89 c6 -4 20 -28 32 -54 18 -37 24 -73 28 -165 4 -67 2 -124 -3
-131 -15 -22 -51 6 -62 48 -13 50 -29 239 -23 278 5 33 10 37 28 24z m125 -48
c0 -14 -28 -39 -36 -31 -3 3 -2 22 2 43 6 34 8 36 20 19 8 -10 14 -24 14 -31z
m155 -244 c5 -23 4 -32 -3 -25 -5 6 -13 26 -17 45 -5 23 -4 32 3 25 5 -5 13
-26 17 -45z m55 -36 c0 -8 -4 -12 -10 -9 -5 3 -10 13 -10 21 0 8 5 12 10 9 6
-3 10 -13 10 -21z m-297 -122 c-3 -20 -8 -39 -10 -42 -9 -10 -23 27 -23 63 0
34 2 37 19 27 16 -8 19 -17 14 -48z"/>
<path d="M5908 10023 c7 -3 16 -2 19 1 4 3 -2 6 -13 5 -11 0 -14 -3 -6 -6z"/>
</g>
</svg>
